Coordinates
version=1
nRows=19
nColumns=36
inDegrees=yes

Units are S.I. units (second, meters, Newtons, ...)
If the header above contains a line with 'inDegrees', this indicates whether rotational values are in degrees (yes) or radians (no).

endheader
time	pelvis_tilt	pelvis_list	pelvis_rotation	pelvis_tx	pelvis_ty	pelvis_tz	hip_flexion_r	hip_adduction_r	hip_rotation_r	knee_angle_r	knee_angle_r_beta	ankle_angle_r	subtalar_angle_r	mtp_angle_r	hip_flexion_l	hip_adduction_l	hip_rotation_l	knee_angle_l	knee_angle_l_beta	ankle_angle_l	subtalar_angle_l	mtp_angle_l	lumbar_extension	lumbar_bending	lumbar_rotation	arm_flex_r	arm_add_r	arm_rot_r	elbow_flex_r	pro_sup_r	arm_flex_l	arm_add_l	arm_rot_l	elbow_flex_l	pro_sup_l
      1.38000000	    -14.94132636	     -3.81392092	      0.35709053	     -0.43503722	      1.07445490	     -0.60354497	     40.76579674	     -3.35674428	     -4.89362736	     16.07053648	      0.28048377	    -31.25440950	     -1.66032361	     -6.05313167	     43.29301339	     -9.12978250	      0.27536309	     17.53697435	      0.30607794	    -31.82016605	      0.02276801	     -6.05313167	    -21.78059836	      4.05508713	      1.52908322	     16.74489822	    -31.40731689	      8.26372784	     61.67917322	    104.91498503	     23.58715764	    -41.40448063	     16.50447844	     53.51727727	    100.69506162
      1.39000000	    -14.81985276	     -3.79769682	      0.31314664	     -0.42271007	      1.05391769	     -0.60379411	     41.36748678	     -3.43676178	     -5.27764382	     17.02958594	      0.29722234	    -31.49702184	     -1.38181086	     -6.15433547	     43.93557994	     -9.16248355	      0.29796667	     17.96359297	      0.31352384	    -32.06181580	      0.07273325	     -6.15433547	    -22.17464139	      4.04528788	      1.26382764	     12.76336989	    -31.21658722	      6.35152482	     60.35554470	    104.38059211	     18.76887043	    -41.53945908	     14.85448612	     51.93542008	    100.62174737
      1.40000000	    -14.72958563	     -3.81521757	      0.31177987	     -0.41042167	      1.03202812	     -0.60417956	     42.11633663	     -3.53162557	     -5.66282751	     18.44543073	      0.32193350	    -31.71310075	     -1.05679059	     -6.40439645	     44.81609323	     -9.17644742	      0.55863029	     18.98256891	      0.33130833	    -32.22168377	      0.36136341	     -6.40439645	    -22.52958574	      4.03942216	      0.33875193	      9.57898786	    -30.98706254	      5.69662064	     58.41041384	    105.33295405	     12.61799534	    -41.63892088	     11.17139620	     51.16180310	    102.75013409
      1.41000000	    -14.67935333	     -3.81052456	      0.31108774	     -0.39825567	      1.00874239	     -0.60462460	     43.08668077	     -3.66949305	     -5.78451325	     20.43527394	      0.35666281	    -32.00876674	     -0.81583498	     -6.45687343	     45.88648895	     -9.12507957	      1.11685289	     20.61679608	      0.35983097	    -32.06918925	      0.73521974	     -6.45687343	    -22.69392593	      4.02018467	      0.08623399	      5.44321381	    -31.17094361	      4.52167891	     57.16245544	    104.10752073	      8.10316966	    -41.61726916	     10.84294086	     49.56017949	    101.57225665
      1.42000000	    -14.47125388	     -3.84069759	      0.22024775	     -0.38606348	      0.98455332	     -0.60509092	     44.05773064	     -3.72047519	     -5.58183874	     22.94568958	      0.40047783	    -32.26458343	     -0.17531281	     -6.51526791	     46.93594394	     -9.11505551	      1.87698752	     22.97585257	      0.40100428	    -31.70298014	      0.95221510	     -6.51526791	    -23.06833685	      4.03286459	     -0.05239571	      1.32943664	    -31.31112740	      2.99469111	     56.02000242	    102.74497213	      3.54902269	    -41.27404326	     10.04423065	     48.31266349	    100.17943632
      1.43000000	    -14.13907846	     -3.99067065	      0.30005074	     -0.37345274	      0.95928473	     -0.60583164	     44.93947987	     -3.80864214	     -5.77337857	     25.65400796	      0.44774691	    -32.21140816	      2.18330474	     -6.60105387	     47.99053156	     -9.01234901	      2.82432334	     25.63777294	      0.44746355	    -32.43970370	      1.12331543	     -6.60105387	    -23.70456033	      4.19380746	     -0.42918277	     -3.17098438	    -30.71130204	     -0.70372299	     55.72468329	    102.78537235	     -2.11935049	    -39.96925753	      5.26132418	     48.58209725	     99.45422769
      1.44000000	    -13.77149672	     -4.02106348	      0.35498497	     -0.36065982	      0.93259314	     -0.60647934	     45.83209312	     -3.89226651	     -5.75819109	     28.54762100	      0.49824998	    -32.93867857	      2.19677486	     -6.75602534	     49.08697469	     -8.83727231	      3.51749142	     28.58361330	      0.49887816	    -33.51718516	      1.89030783	     -6.75602534	    -24.13426019	      4.08947000	     -2.20200143	     -5.35305337	    -30.83091102	      0.06245722	     53.23347665	    106.16797124	     -9.51212791	    -38.78660567	     -0.41048434	     48.98631327	    101.76228450
      1.45000000	    -13.63408533	     -3.93726486	      0.29161503	     -0.34860901	      0.90467027	     -0.60726847	     47.10304222	     -4.16663809	     -5.20655962	     32.29747179	      0.56369722	    -34.16672226	     -1.87436153	     -6.82745986	     50.46621720	     -8.56461533	      4.35315763	     32.62920880	      0.56948713	    -30.83367894	      1.88607512	     -6.82745986	    -24.26335246	      3.95690711	     -2.49193244	     -9.47545716	    -30.76017995	     -1.59355735	     52.27492992	    104.33635530	    -14.10599288	    -37.70135031	     -1.47609885	     48.25755970	    100.34101567
      1.46000000	    -13.66744055	     -3.87534062	     -0.15269401	     -0.33778959	      0.87606292	     -0.60762648	     49.12326882	     -4.13248482	     -3.41037066	     38.31641888	      0.66874767	    -29.92007505	     -4.79426350	     -6.95915187	     52.23160268	     -8.66468328	      4.68876787	     39.05932021	      0.68171374	    -19.62550700	      1.11766367	     -6.95915187	    -24.32754961	      3.71776638	     -2.55422346	    -13.25107333	    -30.72229262	     -2.83992133	     51.41506524	    100.97596153	    -18.61854503	    -36.19766737	     -2.95024781	     47.91676186	     97.49646238
      1.47000000	    -13.42032338	     -3.74396668	     -0.55794223	     -0.32713779	      0.84714673	     -0.60776709	     51.28342673	     -4.14873999	     -2.58004921	     46.53065897	      0.81211320	    -13.01057309	     -0.50411219	     -7.15052241	     53.76544130	     -8.66530313	      4.51086691	     46.71481198	      0.81532728	     -3.82171898	     -0.49473451	     -7.15052241	    -24.70591947	      3.27599503	     -3.10978900	    -16.25315386	    -30.70516509	     -3.59014112	     49.68355189	    105.31903171	    -23.63770905	    -34.25564829	     -6.51804649	     47.63500909	    101.85504865
      1.48000000	    -13.02095169	     -3.59937060	     -0.56782458	     -0.31710107	      0.81899776	     -0.60819495	     52.73301525	     -4.54810306	     -4.05434978	     53.63788302	      0.93615766	      7.01536842	      3.95947293	     -7.22621711	     55.22273428	     -8.34849226	      4.08095231	     53.57855783	      0.93512224	      9.76799969	     -1.13635408	     -7.22621711	    -25.37500675	      2.97717103	     -3.32039285	    -19.85760228	    -30.26589577	     -4.98819567	     48.91583110	    100.91856384	    -27.23620307	    -32.68975228	     -7.83731562	     47.71064872	     97.73299739
      1.49000000	    -13.80913522	     -3.61622998	     -0.60182891	     -0.31068226	      0.79229118	     -0.60851518	     55.35728769	     -4.37067078	     -4.93717152	     58.59871786	      1.02274056	     16.53164528	     -0.52872918	     -7.23217499	     58.31011498	     -7.91585537	      4.18388098	     59.07210795	      1.03100278	     16.36253018	     -4.20296580	     -7.23217499	    -25.23776599	      2.87745594	     -3.46214118	    -22.43790429	    -29.72655070	     -5.75160809	     46.99951023	    100.78853779	    -29.74002256	    -31.12113806	     -8.37634176	     46.61887679	     97.53369249
      1.50000000	    -15.75702793	     -3.75926008	     -0.86057028	     -0.30748323	      0.76764522	     -0.60863720	     60.19079135	     -3.74194084	     -3.82795733	     63.66695290	      1.11119795	     19.75763543	     -3.10968245	     -7.22728085	     63.36141891	     -7.72233048	      4.94480690	     64.52858891	      1.12623634	     19.44538287	     -5.33996396	     -7.22728085	    -24.41623551	      2.87076657	     -3.47462575	    -24.06962632	    -28.83254183	     -6.89316411	     44.81310454	    101.65192558	    -31.47121996	    -29.12970837	     -9.37684150	     45.33909721	     98.19226174
      1.51000000	    -17.79711361	     -4.00430529	     -1.13062439	     -0.30427049	      0.74561955	     -0.60872495	     66.06882568	     -2.92227109	     -2.20486789	     69.76668245	      1.21765832	     17.95315437	     -5.82373802	     -7.24118545	     69.14813060	     -7.51280821	      6.25284011	     70.62257610	      1.23259648	     20.02646371	     -5.39292293	     -7.24118545	    -23.75439726	      2.95261441	     -3.56921001	    -25.02076100	    -27.21644761	     -9.88685234	     42.79445269	    101.94798679	    -32.73141330	    -26.28292989	    -12.53991013	     44.44588109	     98.10713503
      1.52000000	    -18.50963484	     -4.08476615	     -1.05443066	     -0.29873151	      0.72776616	     -0.60987504	     70.22429283	     -3.00681506	     -1.57027683	     75.83691646	      1.32360389	     17.81208875	     -6.26702772	     -7.24453722	     73.15269462	     -6.75140939	      7.39699892	     76.42090611	      1.33379643	     20.15603297	     -5.92609252	     -7.24453722	    -24.57661498	      3.04264341	     -3.78148998	    -25.64818827	    -26.12419440	    -10.84652143	     41.04489903	    101.71740976	    -33.05520471	    -24.30367098	    -12.86659584	     43.11168136	     97.90614763
      1.53000000	    -18.51093691	     -4.03791336	     -0.87234836	     -0.29249806	      0.71330433	     -0.61136737	     72.64175790	     -3.36301395	     -1.29104615	     80.53191094	      1.40554700	     17.98124727	     -7.10388387	     -7.24821298	     75.32800256	     -5.79287305	      8.14892922	     80.82410523	      1.41064675	     20.82055498	     -6.76544409	     -7.24821298	    -26.26507263	      3.04850736	     -4.08547557	    -25.45807934	    -24.62979750	    -12.82057721	     39.10320498	    101.42205684	    -32.48011058	    -22.27573566	    -13.90540407	     41.35832111	     97.67858745
      1.54000000	    -18.10106478	     -3.98250997	     -0.88085042	     -0.28709951	      0.70164921	     -0.61225186	     73.69091923	     -3.36722028	     -1.11680273	     83.67086177	      1.46033203	     18.76197300	     -8.31886091	     -7.25269012	     76.10879554	     -5.39282934	      8.25370895	     83.79120691	      1.46243244	     22.45915586	     -7.93359059	     -7.25269012	    -28.70024672	      2.90761860	     -4.04136502	    -24.63846233	    -22.84651402	    -15.48808139	     37.68309311	    101.18276484	    -31.02001237	    -20.48580216	    -15.42148951	     39.71255047	     97.51930052
      1.55000000	    -18.07754925	     -4.06515619	     -0.86830667	     -0.28278751	      0.69037988	     -0.61309498	     74.63308078	     -3.18842333	     -1.06887799	     85.91862764	      1.49956294	     20.12525143	     -9.65081859	     -7.25671337	     76.91306375	     -5.20315756	      8.38463759	     85.96387828	      1.50035271	     24.36377189	     -8.66933142	     -7.25671337	    -30.68854445	      2.96774402	     -3.86266976	    -23.80981419	    -21.30762359	    -17.62410949	     37.26896058	    101.13548488	    -29.31476184	    -19.12781993	    -16.49016076	     38.68095628	     97.45856723
      1.56000000	    -18.24716676	     -4.20997636	     -0.74808711	     -0.27890009	      0.67983792	     -0.61408534	     75.47734448	     -3.05739249	     -1.00219319	     87.80296045	      1.53245075	     21.52086011	    -10.46498049	     -7.28755230	     77.75564000	     -4.96930402	      8.72909685	     87.83393198	      1.53299131	     26.46142610	     -8.12384188	     -7.28755230	    -32.27775722	      3.36388616	     -2.82138152	    -23.85723305	    -18.75985872	    -23.49778482	     38.94912508	    103.20646042	    -26.32712862	    -18.40277055	    -16.37701175	     37.12172311	     98.64707628
